<svg xmlns="http://www.w3.org/2000/svg" xmlns:xlink="http://www.w3.org/1999/xlink" width="340px" height="300px" viewBox="0 0 340 300">
	<defs>
		<style>
			.fill_1 {fill: #6cc655;}
			.fill_2 {fill: #ffffff;}
		</style>
	</defs>
	<g>
		<path class="fill_1" d="M196.340,10.864 C181.819,-3.646 158.060,-3.646 143.539,10.864 C143.539,10.864 10.873,143.427 10.873,143.427 C-3.650,157.937 -3.650,181.684 10.873,196.191 
				 C10.873,196.191 105.540,290.789 105.540,290.789 C112.132,296.523 120.749,300.002 130.178,300.002 C130.178,300.002 209.708,300.002 209.708,300.002 
				 C220.069,300.002 229.452,295.801 236.241,289.021 C236.241,289.021 329.077,196.263 329.077,196.263 C343.598,181.748 343.598,158.001 329.077,143.494 
				 C329.077,143.494 196.340,10.864 196.340,10.864 Z"/>
		<path class="fill_2" d="M192.644,252.985 C192.644,252.985 179.402,266.216 179.402,266.216 C178.431,267.187 177.093,267.787 175.614,267.787 C175.614,267.787 164.270,267.787 164.270,267.787 
				 C162.919,267.787 161.695,267.290 160.752,266.470 C160.752,266.470 147.246,252.973 147.246,252.973 C145.177,250.911 145.177,247.518 147.246,245.452 
				 C147.246,245.452 166.171,226.535 166.171,226.535 C168.245,224.462 171.641,224.462 173.703,226.535 C173.703,226.535 192.644,245.456 192.644,245.456 
				 C194.718,247.522 194.718,250.918 192.644,252.985 ZM192.644,173.639 C192.644,173.639 139.694,226.547 139.694,226.547 C138.726,227.518 137.389,228.107 135.914,228.107 
				 C135.914,228.107 124.565,228.107 124.565,228.107 C123.218,228.107 121.987,227.621 121.047,226.800 C121.047,226.800 107.542,213.308 107.542,213.308 
				 C105.472,211.233 105.472,207.848 107.542,205.775 C107.542,205.775 166.171,147.186 166.171,147.186 C168.245,145.122 171.641,145.122 173.710,147.186 
				 C173.710,147.186 192.644,166.125 192.644,166.125 C194.718,168.183 194.718,171.564 192.644,173.639 ZM192.644,94.292 C192.644,94.292 99.994,186.870 99.994,186.870 
				 C99.023,187.840 97.681,188.437 96.205,188.437 C96.205,188.437 84.861,188.437 84.861,188.437 C83.518,188.437 82.288,187.943 81.349,187.123 
				 C81.349,187.123 67.837,173.626 67.837,173.626 C65.768,171.564 65.768,168.171 67.837,166.110 C67.837,166.110 166.171,67.843 166.171,67.843 
				 C168.245,65.776 171.633,65.776 173.703,67.843 C173.703,67.843 192.644,86.767 192.644,86.767 C194.718,88.838 194.718,92.226 192.644,94.292 Z"/>
	</g>
</svg>
