<svg xmlns="http://www.w3.org/2000/svg" xmlns:xlink="http://www.w3.org/1999/xlink" width="340px" height="300px" viewBox="0 0 340 300">
	<defs>
		<style>
			.fill {fill: #6cc655;}
		</style>
	</defs>
	<path class="fill" d="M329.077,196.263 C329.077,196.263 236.241,289.021 236.241,289.021 C229.452,295.801 220.069,300.002 209.708,300.002 C209.708,300.002 130.178,300.002 130.178,300.002 
			 C120.749,300.002 112.132,296.522 105.540,290.789 C105.540,290.789 10.873,196.191 10.873,196.191 C-3.650,181.684 -3.650,157.937 10.873,143.427 
			 C10.873,143.427 143.539,10.864 143.539,10.864 C158.060,-3.646 181.819,-3.646 196.340,10.864 C196.340,10.864 329.077,143.494 329.077,143.494 
			 C343.598,158.001 343.598,181.748 329.077,196.263 ZM192.644,86.766 C192.644,86.766 173.703,67.843 173.703,67.843 C171.633,65.776 168.245,65.776 166.171,67.843 
			 C166.171,67.843 67.837,166.110 67.837,166.110 C65.768,168.171 65.768,171.564 67.837,173.626 C67.837,173.626 81.349,187.123 81.349,187.123 
			 C82.288,187.943 83.518,188.437 84.861,188.437 C84.861,188.437 96.205,188.437 96.205,188.437 C97.681,188.437 99.023,187.840 99.994,186.870 
			 C99.994,186.870 192.644,94.292 192.644,94.292 C194.718,92.226 194.718,88.838 192.644,86.766 ZM192.644,166.124 C192.644,166.124 173.710,147.186 173.710,147.186 
			 C171.641,145.122 168.245,145.122 166.171,147.186 C166.171,147.186 107.542,205.775 107.542,205.775 C105.472,207.848 105.472,211.233 107.542,213.308 
			 C107.542,213.308 121.047,226.800 121.047,226.800 C121.987,227.621 123.218,228.107 124.565,228.107 C124.565,228.107 135.914,228.107 135.914,228.107 
			 C137.389,228.107 138.726,227.518 139.694,226.547 C139.694,226.547 192.644,173.639 192.644,173.639 C194.718,171.564 194.718,168.183 192.644,166.124 ZM192.644,245.456 
			 C192.644,245.456 173.703,226.535 173.703,226.535 C171.641,224.462 168.245,224.462 166.171,226.535 C166.171,226.535 147.246,245.452 147.246,245.452 
			 C145.177,247.518 145.177,250.911 147.246,252.973 C147.246,252.973 160.752,266.470 160.752,266.470 C161.695,267.290 162.919,267.787 164.270,267.787 
			 C164.270,267.787 175.614,267.787 175.614,267.787 C177.093,267.787 178.431,267.187 179.402,266.216 C179.402,266.216 192.644,252.985 192.644,252.985 
			 C194.718,250.918 194.718,247.522 192.644,245.456 Z"/>
</svg>
