<svg xmlns="http://www.w3.org/2000/svg" xmlns:xlink="http://www.w3.org/1999/xlink" width="313px" height="300px" viewBox="0 0 313 300">
	<defs>
		<style>
			.fill {fill: #df4a32;}
		</style>
	</defs>
	<path class="fill" d="M312.998,146.980 C312.998,146.980 270.864,146.980 270.864,146.980 
			 C270.864,146.980 270.864,188.250 270.864,188.250 C270.864,188.250 246.788,188.250 246.788,188.250 C246.788,188.250 246.788,146.980 246.788,146.980 
			 C246.788,146.980 205.657,146.980 205.657,146.980 C205.657,146.980 205.657,146.087 205.657,146.087 C205.657,146.087 205.397,146.087 205.397,146.087 
			 C205.397,146.087 205.397,122.612 205.397,122.612 C205.397,122.612 246.788,122.612 246.788,122.612 C246.788,122.612 246.788,80.545 246.788,80.545 
			 C246.788,80.545 270.864,80.545 270.864,80.545 C270.864,80.545 270.864,122.612 270.864,122.612 C270.864,122.612 311.995,122.612 311.995,122.612 
			 C311.995,122.612 311.995,122.822 311.995,122.822 C311.995,122.822 312.998,122.822 312.998,122.822 C312.998,122.822 312.998,146.980 312.998,146.980 ZM141.721,14.218 
			 C144.177,15.755 146.940,17.998 150.010,20.943 C152.955,24.019 155.843,27.799 158.668,32.283 C161.369,36.511 163.762,41.507 165.851,47.271 
			 C167.568,53.038 168.430,59.763 168.430,67.451 C168.196,81.546 165.109,92.818 159.166,101.274 C156.251,105.376 153.163,109.153 149.902,112.613 
			 C146.290,116.073 142.446,119.597 138.368,123.183 C136.037,125.619 133.883,128.370 131.903,131.446 C129.573,134.650 128.407,138.366 128.407,142.593 
			 C128.407,146.694 129.602,150.087 131.993,152.778 C134.022,155.343 135.995,157.583 137.909,159.505 C137.909,159.505 151.175,170.458 151.175,170.458 
			 C159.420,177.251 166.650,184.742 172.865,192.942 C178.721,201.271 181.771,212.161 182.009,225.614 C182.009,244.702 173.642,261.614 156.910,276.348 
			 C139.557,291.595 114.518,299.474 81.798,299.988 C54.407,299.729 33.954,293.847 20.447,282.339 C6.814,271.595 -0.005,258.744 -0.005,243.784 
			 C-0.005,236.493 2.212,228.374 6.647,219.422 C10.950,210.468 18.742,202.603 30.020,195.830 C42.687,188.539 55.992,183.681 69.930,181.251 
			 C83.735,179.202 95.200,178.055 104.325,177.798 C101.505,174.063 98.992,170.069 96.787,165.817 C94.212,161.696 92.927,156.735 92.927,150.937 
			 C92.927,147.461 93.415,144.560 94.397,142.242 C95.254,139.794 96.051,137.542 96.787,135.483 C92.342,135.996 88.155,136.251 84.222,136.251 
			 C63.405,135.996 47.537,129.399 36.623,116.459 C25.198,104.418 19.487,90.392 19.487,74.379 C19.487,55.034 27.580,37.487 43.767,21.727 
			 C54.884,12.506 66.436,6.485 78.421,3.665 C90.283,1.234 101.403,0.015 111.782,0.015 C111.782,0.015 189.990,0.015 189.990,0.015 
			 C189.990,0.015 165.836,14.218 165.836,14.218 C165.836,14.218 141.721,14.218 141.721,14.218 ZM90.897,189.311 C82.802,190.463 74.523,192.319 66.058,194.883 
			 C64.063,195.653 61.262,196.805 57.653,198.345 C54.040,200.009 50.368,202.382 46.633,205.456 C43.021,208.656 39.972,212.630 37.481,217.373 
			 C34.616,222.371 33.186,228.392 33.186,235.441 C33.186,249.279 39.408,260.683 51.862,269.656 C63.690,278.625 79.878,283.238 100.423,283.496 
			 C118.852,283.238 132.922,279.138 142.634,271.193 C152.096,263.374 156.829,253.314 156.829,241.015 C156.829,231.020 153.589,222.305 147.116,214.876 
			 C140.267,207.825 129.561,199.178 114.991,188.926 C112.501,188.667 109.576,188.542 106.215,188.542 C104.220,188.284 99.115,188.542 90.897,189.311 ZM123.444,38.676 
			 C119.746,31.102 114.879,24.940 108.840,20.190 C102.676,15.698 95.591,13.322 87.579,13.064 C76.982,13.322 68.168,17.623 61.145,25.967 
			 C55.221,34.699 52.387,44.456 52.642,55.236 C52.642,69.486 56.779,84.317 65.059,99.721 C69.065,106.912 74.239,113.009 80.576,118.014 
			 C86.912,123.024 94.155,125.524 102.304,125.524 C112.598,125.140 121.176,121.417 128.040,114.354 C131.349,109.348 133.477,104.215 134.422,98.950 
			 C134.989,93.689 135.275,89.260 135.275,85.664 C135.275,70.130 131.331,54.468 123.444,38.676 Z"/>
</svg>
