<svg xmlns="http://www.w3.org/2000/svg" xmlns:xlink="http://www.w3.org/1999/xlink" width="300px" height="300px" viewBox="0 0 300 300">
	<defs>
		<style>
			.fill_1 {fill: #fff;}
			.fill_2 {fill: #008fde;}
			.fill_3 {fill: #00a4de;}
			.fill_4 {fill: #f9f9f9;}
		</style>
	</defs>
	<g>
		<path class="fill_3" d="M255.882,0H150H44.118C19.752,0,0,19.752,0,44.118V150v105.882
				 C0,280.248,19.752,300,44.118,300H150h105.882C280.248,300,300,280.248,300,255.882V150V44.118C300,19.752,280.248,0,255.882,0z"/>
		<path class="fill_2" d="M0,150v105.882C0,280.248,19.752,300,44.118,300H150h105.882 C280.248,300,300,280.248,300,255.882V150H0z"/>
		<path class="fill_1" d="M194.123,83.824h30.883v88.238h-30.883V83.824z"/>
		<path class="fill_1" d="M165.527,154.676c-5.225-5.841-12.492-9.125-21.813-9.833
				 c8.292-2.26,14.313-5.566,18.122-9.983c3.791-4.359,5.672-10.276,5.672-17.723c0-5.895-1.289-11.11-3.785-15.616
				 c-2.561-4.479-6.238-8.063-11.074-10.746c-4.229-2.327-9.256-3.968-15.116-4.936c-5.889-0.938-16.195-1.411-30.984-1.411H70.589
				 v131.145h37.048c14.884,0,25.617-0.521,32.18-1.518c6.557-1.031,12.059-2.766,16.512-5.145
				 c5.508-2.906,9.709-7.043,12.645-12.357c2.955-5.332,4.418-11.48,4.418-18.51C173.391,168.316,170.771,160.5,165.527,154.676z
				 M103.792,113.502h7.676c8.871,0,14.831,1,17.907,2.994c3.034,2.004,4.583,5.462,4.583,10.389c0,4.74-1.647,8.079-4.905,10.037
				 c-3.301,1.921-9.316,2.895-18.123,2.895h-7.138V113.502z M134.24,188.707c-3.492,2.145-9.51,3.199-17.954,3.199h-12.492v-28.654
				 h13.032c8.671,0,14.666,1.092,17.854,3.271c3.24,2.18,4.833,6.029,4.833,11.555C139.512,183.023,137.764,186.574,134.24,188.707z"/>
		<path class="fill_4" d="M209.566,180.885c-9.75,0-17.648,7.893-17.648,17.643s7.898,17.65,17.648,17.65
				 c9.738,0,17.643-7.9,17.643-17.65S219.305,180.885,209.566,180.885z"/>
		<path class="fill_4" d="M159.891,150H70.589v65.572h37.048c14.884,0,25.617-0.521,32.18-1.518
				 c6.557-1.031,12.059-2.766,16.512-5.145c5.508-2.906,9.709-7.043,12.645-12.357c2.955-5.332,4.418-11.48,4.418-18.51
				 c0-9.725-2.619-17.541-7.863-23.367C163.875,152.836,161.947,151.336,159.891,150z M134.24,188.707
				 c-3.492,2.145-9.51,3.199-17.954,3.199h-12.492v-28.654h13.032c8.671,0,14.666,1.092,17.854,3.271
				 c3.24,2.18,4.833,6.029,4.833,11.555C139.512,183.023,137.764,186.574,134.24,188.707z"/>
		<path class="fill_4" d="M194.123,150h30.883v22.063h-30.883V150z"/>
	</g>
</svg>
